<?xml version="1.0" standalone="no"?>
<!DOCTYPE svg PUBLIC "-//W3C//DTD SVG 20010904//EN"
 "http://www.w3.org/TR/2001/REC-SVG-20010904/DTD/svg10.dtd">
<svg version="1.0" xmlns="http://www.w3.org/2000/svg"
 width="700.000000pt" height="700.000000pt" viewBox="0 0 700.000000 700.000000"
 preserveAspectRatio="xMidYMid meet">
<metadata>
Created by potrace 1.14, written by Peter Selinger 2001-2017
</metadata>
<g transform="translate(0.000000,700.000000) scale(0.100000,-0.100000)"
fill="#000000" stroke="none">
<path d="M4005 6112 c-84 -24 -141 -71 -179 -149 -13 -26 -56 -178 -95 -338
-39 -159 -77 -312 -85 -340 -8 -27 -26 -102 -41 -165 -15 -63 -31 -126 -35
-140 -8 -22 -173 -684 -220 -880 -30 -125 -169 -681 -185 -740 -8 -30 -45
-174 -80 -320 -36 -146 -72 -290 -80 -320 -9 -30 -81 -318 -160 -640 -80 -322
-151 -607 -159 -635 -39 -135 -59 -235 -58 -287 2 -183 180 -318 360 -272 29
8 73 27 96 44 94 64 65 -38 526 1810 231 927 424 1699 430 1715 8 26 48 187
70 285 20 86 161 648 169 675 31 96 93 378 94 425 3 182 -189 325 -368 272z"/>
<path d="M1947 4940 c-27 -10 -63 -30 -80 -43 -18 -14 -302 -295 -632 -625
-665 -666 -648 -646 -648 -772 0 -128 -18 -107 664 -789 458 -457 627 -620
664 -639 73 -38 179 -37 254 1 148 76 205 249 129 395 -15 28 -197 218 -517
538 l-494 494 501 502 c462 462 504 506 523 557 71 190 -51 380 -252 395 -47
3 -77 0 -112 -14z"/>
<path d="M4872 4944 c-162 -50 -248 -239 -180 -393 21 -45 100 -129 523 -552
l499 -499 -493 -492 c-270 -271 -504 -513 -518 -538 -40 -66 -45 -178 -11
-252 73 -159 265 -223 413 -136 17 9 306 293 643 629 680 680 665 663 665 788
0 129 19 107 -665 790 -440 440 -628 621 -661 637 -57 29 -154 37 -215 18z"/>
</g>
</svg>
